<mxfile host="app.diagrams.net" agent="Mozilla/5.0 (Windows NT 10.0; Win64; x64) AppleWebKit/537.36 (KHTML, like Gecko) Chrome/130.0.0.0 Safari/537.36" version="24.8.3">
  <diagram name="Página-1" id="tYM8kbquR9Sboo0CtD5Z">
    <mxGraphModel dx="3363" dy="1569" grid="1" gridSize="10" guides="1" tooltips="1" connect="1" arrows="1" fold="1" page="0" pageScale="1" pageWidth="827" pageHeight="1169" math="0" shadow="0">
      <root>
        <mxCell id="0" />
        <mxCell id="1" parent="0" />
        <mxCell id="tlA8jl-dxx9mtqlVM2M6-66" value="" style="endArrow=none;dashed=1;html=1;rounded=0;" edge="1" parent="1">
          <mxGeometry width="50" height="50" relative="1" as="geometry">
            <mxPoint x="346.16" y="1510" as="sourcePoint" />
            <mxPoint x="346" y="1190" as="targetPoint" />
          </mxGeometry>
        </mxCell>
        <mxCell id="5wawDYaMk-WUsct9DKJH-18" value="" style="endArrow=classic;html=1;rounded=0;entryX=0.131;entryY=0;entryDx=0;entryDy=0;entryPerimeter=0;exitX=1.003;exitY=0.977;exitDx=0;exitDy=0;exitPerimeter=0;" parent="1" edge="1">
          <mxGeometry width="50" height="50" relative="1" as="geometry">
            <mxPoint x="364" y="398.433" as="sourcePoint" />
            <mxPoint x="207.35999999999996" y="397.7399999999999" as="targetPoint" />
            <Array as="points">
              <mxPoint x="280" y="398" />
            </Array>
          </mxGeometry>
        </mxCell>
        <mxCell id="5wawDYaMk-WUsct9DKJH-60" style="edgeStyle=orthogonalEdgeStyle;rounded=0;orthogonalLoop=1;jettySize=auto;html=1;exitX=1;exitY=0.5;exitDx=0;exitDy=0;" parent="1" source="5wawDYaMk-WUsct9DKJH-47" target="5wawDYaMk-WUsct9DKJH-1" edge="1">
          <mxGeometry relative="1" as="geometry">
            <Array as="points">
              <mxPoint x="70" y="310" />
              <mxPoint x="70" y="310" />
            </Array>
          </mxGeometry>
        </mxCell>
        <mxCell id="5wawDYaMk-WUsct9DKJH-61" style="edgeStyle=orthogonalEdgeStyle;rounded=0;orthogonalLoop=1;jettySize=auto;html=1;exitX=1;exitY=0.5;exitDx=0;exitDy=0;" parent="1" source="5wawDYaMk-WUsct9DKJH-48" target="5wawDYaMk-WUsct9DKJH-1" edge="1">
          <mxGeometry relative="1" as="geometry">
            <Array as="points">
              <mxPoint x="60" y="390" />
              <mxPoint x="60" y="390" />
            </Array>
          </mxGeometry>
        </mxCell>
        <mxCell id="5wawDYaMk-WUsct9DKJH-91" style="edgeStyle=orthogonalEdgeStyle;rounded=0;orthogonalLoop=1;jettySize=auto;html=1;entryX=1;entryY=0.5;entryDx=0;entryDy=0;" parent="1" source="5wawDYaMk-WUsct9DKJH-1" target="5wawDYaMk-WUsct9DKJH-90" edge="1">
          <mxGeometry relative="1" as="geometry">
            <Array as="points">
              <mxPoint x="120" y="480" />
            </Array>
          </mxGeometry>
        </mxCell>
        <mxCell id="5wawDYaMk-WUsct9DKJH-116" style="edgeStyle=orthogonalEdgeStyle;rounded=0;orthogonalLoop=1;jettySize=auto;html=1;entryX=0.5;entryY=1;entryDx=0;entryDy=0;" parent="1" source="5wawDYaMk-WUsct9DKJH-1" target="5wawDYaMk-WUsct9DKJH-115" edge="1">
          <mxGeometry relative="1" as="geometry" />
        </mxCell>
        <mxCell id="5wawDYaMk-WUsct9DKJH-1" value="MKM3x" style="whiteSpace=wrap;html=1;aspect=fixed;" parent="1" vertex="1">
          <mxGeometry x="87" y="292.5" width="120" height="120" as="geometry" />
        </mxCell>
        <mxCell id="5wawDYaMk-WUsct9DKJH-3" value="4DIRx4xxH" style="rounded=0;whiteSpace=wrap;html=1;rotation=-90;" parent="1" vertex="1">
          <mxGeometry x="308" y="330" width="157" height="45" as="geometry" />
        </mxCell>
        <mxCell id="5wawDYaMk-WUsct9DKJH-101" style="edgeStyle=orthogonalEdgeStyle;rounded=0;orthogonalLoop=1;jettySize=auto;html=1;entryX=0.5;entryY=1;entryDx=0;entryDy=0;" parent="1" source="5wawDYaMk-WUsct9DKJH-5" target="5wawDYaMk-WUsct9DKJH-99" edge="1">
          <mxGeometry relative="1" as="geometry" />
        </mxCell>
        <mxCell id="5wawDYaMk-WUsct9DKJH-102" style="edgeStyle=orthogonalEdgeStyle;rounded=0;orthogonalLoop=1;jettySize=auto;html=1;" parent="1" source="5wawDYaMk-WUsct9DKJH-5" target="5wawDYaMk-WUsct9DKJH-96" edge="1">
          <mxGeometry relative="1" as="geometry" />
        </mxCell>
        <mxCell id="5wawDYaMk-WUsct9DKJH-103" style="edgeStyle=orthogonalEdgeStyle;rounded=0;orthogonalLoop=1;jettySize=auto;html=1;" parent="1" source="5wawDYaMk-WUsct9DKJH-5" target="5wawDYaMk-WUsct9DKJH-100" edge="1">
          <mxGeometry relative="1" as="geometry" />
        </mxCell>
        <mxCell id="5wawDYaMk-WUsct9DKJH-5" value="ESP32" style="whiteSpace=wrap;html=1;aspect=fixed;" parent="1" vertex="1">
          <mxGeometry x="550" y="292.5" width="120" height="120" as="geometry" />
        </mxCell>
        <mxCell id="5wawDYaMk-WUsct9DKJH-19" value="PWM_READ" style="endArrow=classic;html=1;rounded=0;entryX=0.131;entryY=0;entryDx=0;entryDy=0;entryPerimeter=0;exitX=1.003;exitY=0.977;exitDx=0;exitDy=0;exitPerimeter=0;" parent="1" edge="1">
          <mxGeometry width="50" height="50" relative="1" as="geometry">
            <mxPoint x="363.64" y="367.693" as="sourcePoint" />
            <mxPoint x="206.99999999999994" y="366.9999999999999" as="targetPoint" />
            <Array as="points" />
          </mxGeometry>
        </mxCell>
        <mxCell id="5wawDYaMk-WUsct9DKJH-20" value="TX" style="endArrow=classic;html=1;rounded=0;entryX=0.131;entryY=0;entryDx=0;entryDy=0;entryPerimeter=0;exitX=1.003;exitY=0.977;exitDx=0;exitDy=0;exitPerimeter=0;" parent="1" edge="1">
          <mxGeometry width="50" height="50" relative="1" as="geometry">
            <mxPoint x="206.99999999999994" y="306.9999999999999" as="sourcePoint" />
            <mxPoint x="363.64" y="307.693" as="targetPoint" />
            <Array as="points" />
          </mxGeometry>
        </mxCell>
        <mxCell id="5wawDYaMk-WUsct9DKJH-21" value="RX" style="endArrow=classic;html=1;rounded=0;entryX=0.131;entryY=0;entryDx=0;entryDy=0;entryPerimeter=0;exitX=1.003;exitY=0.977;exitDx=0;exitDy=0;exitPerimeter=0;" parent="1" edge="1">
          <mxGeometry width="50" height="50" relative="1" as="geometry">
            <mxPoint x="363.64" y="337.693" as="sourcePoint" />
            <mxPoint x="206.99999999999994" y="336.9999999999999" as="targetPoint" />
            <Array as="points">
              <mxPoint x="279.64" y="337.26" />
            </Array>
          </mxGeometry>
        </mxCell>
        <mxCell id="5wawDYaMk-WUsct9DKJH-27" value="" style="endArrow=classic;html=1;rounded=0;exitX=0.21;exitY=1.005;exitDx=0;exitDy=0;exitPerimeter=0;entryX=0.21;entryY=1.005;entryDx=0;entryDy=0;entryPerimeter=0;" parent="1" target="5wawDYaMk-WUsct9DKJH-3" edge="1">
          <mxGeometry width="50" height="50" relative="1" as="geometry">
            <mxPoint x="550" y="398" as="sourcePoint" />
            <mxPoint x="410" y="398" as="targetPoint" />
          </mxGeometry>
        </mxCell>
        <mxCell id="5wawDYaMk-WUsct9DKJH-28" value="PWM_READ" style="endArrow=classic;html=1;rounded=0;exitX=0.004;exitY=0.23;exitDx=0;exitDy=0;exitPerimeter=0;entryX=0.21;entryY=1.005;entryDx=0;entryDy=0;entryPerimeter=0;" parent="1" edge="1">
          <mxGeometry width="50" height="50" relative="1" as="geometry">
            <mxPoint x="550" y="369" as="sourcePoint" />
            <mxPoint x="409" y="369" as="targetPoint" />
          </mxGeometry>
        </mxCell>
        <mxCell id="5wawDYaMk-WUsct9DKJH-29" value="TX" style="endArrow=classic;html=1;rounded=0;exitX=0.004;exitY=0.23;exitDx=0;exitDy=0;exitPerimeter=0;entryX=0.21;entryY=1.005;entryDx=0;entryDy=0;entryPerimeter=0;" parent="1" edge="1">
          <mxGeometry width="50" height="50" relative="1" as="geometry">
            <mxPoint x="550" y="339" as="sourcePoint" />
            <mxPoint x="409" y="339" as="targetPoint" />
          </mxGeometry>
        </mxCell>
        <mxCell id="5wawDYaMk-WUsct9DKJH-30" value="RX" style="endArrow=classic;html=1;rounded=0;exitX=0.004;exitY=0.23;exitDx=0;exitDy=0;exitPerimeter=0;entryX=0.21;entryY=1.005;entryDx=0;entryDy=0;entryPerimeter=0;" parent="1" edge="1">
          <mxGeometry width="50" height="50" relative="1" as="geometry">
            <mxPoint x="409" y="309" as="sourcePoint" />
            <mxPoint x="550" y="309" as="targetPoint" />
          </mxGeometry>
        </mxCell>
        <mxCell id="5wawDYaMk-WUsct9DKJH-33" value="Máquina de Estados" style="text;html=1;align=center;verticalAlign=middle;whiteSpace=wrap;rounded=0;" parent="1" vertex="1">
          <mxGeometry x="180" y="250" width="130" height="30" as="geometry" />
        </mxCell>
        <mxCell id="5wawDYaMk-WUsct9DKJH-43" value="CP" style="rounded=0;whiteSpace=wrap;html=1;" parent="1" vertex="1">
          <mxGeometry x="550" y="490" width="120" height="60" as="geometry" />
        </mxCell>
        <mxCell id="5wawDYaMk-WUsct9DKJH-46" value="PWM_READ" style="endArrow=classic;html=1;rounded=0;exitX=0.5;exitY=0;exitDx=0;exitDy=0;entryX=0.5;entryY=1;entryDx=0;entryDy=0;" parent="1" source="5wawDYaMk-WUsct9DKJH-43" target="5wawDYaMk-WUsct9DKJH-5" edge="1">
          <mxGeometry width="50" height="50" relative="1" as="geometry">
            <mxPoint x="630" y="540" as="sourcePoint" />
            <mxPoint x="640" y="413" as="targetPoint" />
            <Array as="points">
              <mxPoint x="610" y="460" />
            </Array>
          </mxGeometry>
        </mxCell>
        <mxCell id="5wawDYaMk-WUsct9DKJH-47" value="DETECÇÃO DE RELÉ COLADO" style="rounded=0;whiteSpace=wrap;html=1;" parent="1" vertex="1">
          <mxGeometry x="-100" y="280" width="120" height="60" as="geometry" />
        </mxCell>
        <mxCell id="5wawDYaMk-WUsct9DKJH-48" value="DETECÇÃO DE ZEROCROSSING" style="rounded=0;whiteSpace=wrap;html=1;" parent="1" vertex="1">
          <mxGeometry x="-100" y="360" width="120" height="60" as="geometry" />
        </mxCell>
        <mxCell id="5wawDYaMk-WUsct9DKJH-53" value="" style="endArrow=classic;html=1;rounded=0;entryX=0;entryY=0.5;entryDx=0;entryDy=0;" parent="1" target="5wawDYaMk-WUsct9DKJH-54" edge="1">
          <mxGeometry width="50" height="50" relative="1" as="geometry">
            <mxPoint x="168" y="412.5" as="sourcePoint" />
            <mxPoint x="308" y="482.5" as="targetPoint" />
            <Array as="points">
              <mxPoint x="168" y="520" />
            </Array>
          </mxGeometry>
        </mxCell>
        <mxCell id="5wawDYaMk-WUsct9DKJH-55" value="PWM" style="edgeLabel;html=1;align=center;verticalAlign=middle;resizable=0;points=[];" parent="5wawDYaMk-WUsct9DKJH-53" vertex="1" connectable="0">
          <mxGeometry x="0.4706" relative="1" as="geometry">
            <mxPoint x="-19" as="offset" />
          </mxGeometry>
        </mxCell>
        <mxCell id="5wawDYaMk-WUsct9DKJH-54" value="OPTO" style="rounded=0;whiteSpace=wrap;html=1;" parent="1" vertex="1">
          <mxGeometry x="361.5" y="490" width="50" height="60" as="geometry" />
        </mxCell>
        <mxCell id="5wawDYaMk-WUsct9DKJH-56" value="" style="endArrow=classic;html=1;rounded=0;exitX=1;exitY=0.5;exitDx=0;exitDy=0;entryX=0;entryY=0.5;entryDx=0;entryDy=0;" parent="1" source="5wawDYaMk-WUsct9DKJH-54" target="5wawDYaMk-WUsct9DKJH-43" edge="1">
          <mxGeometry width="50" height="50" relative="1" as="geometry">
            <mxPoint x="460" y="390" as="sourcePoint" />
            <mxPoint x="520" y="490" as="targetPoint" />
            <Array as="points" />
          </mxGeometry>
        </mxCell>
        <mxCell id="5wawDYaMk-WUsct9DKJH-57" value="PWM" style="edgeLabel;html=1;align=center;verticalAlign=middle;resizable=0;points=[];" parent="5wawDYaMk-WUsct9DKJH-56" vertex="1" connectable="0">
          <mxGeometry x="-0.3439" y="1" relative="1" as="geometry">
            <mxPoint x="13" y="1" as="offset" />
          </mxGeometry>
        </mxCell>
        <mxCell id="5wawDYaMk-WUsct9DKJH-63" value="Rele_colado" style="endArrow=classic;html=1;rounded=0;entryX=0.131;entryY=0;entryDx=0;entryDy=0;entryPerimeter=0;exitX=1.003;exitY=0.977;exitDx=0;exitDy=0;exitPerimeter=0;" parent="1" edge="1">
          <mxGeometry width="50" height="50" relative="1" as="geometry">
            <mxPoint x="167.35999999999996" y="867.7399999999998" as="sourcePoint" />
            <mxPoint x="324" y="868.433" as="targetPoint" />
            <Array as="points" />
          </mxGeometry>
        </mxCell>
        <mxCell id="5wawDYaMk-WUsct9DKJH-64" style="edgeStyle=orthogonalEdgeStyle;rounded=0;orthogonalLoop=1;jettySize=auto;html=1;exitX=1;exitY=0.5;exitDx=0;exitDy=0;" parent="1" source="5wawDYaMk-WUsct9DKJH-79" target="5wawDYaMk-WUsct9DKJH-66" edge="1">
          <mxGeometry relative="1" as="geometry">
            <Array as="points">
              <mxPoint x="30" y="780" />
              <mxPoint x="30" y="780" />
            </Array>
          </mxGeometry>
        </mxCell>
        <mxCell id="5wawDYaMk-WUsct9DKJH-65" style="edgeStyle=orthogonalEdgeStyle;rounded=0;orthogonalLoop=1;jettySize=auto;html=1;exitX=1;exitY=0.5;exitDx=0;exitDy=0;" parent="1" source="5wawDYaMk-WUsct9DKJH-80" target="5wawDYaMk-WUsct9DKJH-66" edge="1">
          <mxGeometry relative="1" as="geometry">
            <Array as="points">
              <mxPoint x="20" y="860" />
              <mxPoint x="20" y="860" />
            </Array>
          </mxGeometry>
        </mxCell>
        <mxCell id="5wawDYaMk-WUsct9DKJH-118" style="edgeStyle=orthogonalEdgeStyle;rounded=0;orthogonalLoop=1;jettySize=auto;html=1;exitX=0.5;exitY=0;exitDx=0;exitDy=0;" parent="1" source="5wawDYaMk-WUsct9DKJH-117" target="5wawDYaMk-WUsct9DKJH-66" edge="1">
          <mxGeometry relative="1" as="geometry" />
        </mxCell>
        <mxCell id="5wawDYaMk-WUsct9DKJH-66" value="MKM3x" style="whiteSpace=wrap;html=1;aspect=fixed;" parent="1" vertex="1">
          <mxGeometry x="47" y="762.5" width="120" height="120" as="geometry" />
        </mxCell>
        <mxCell id="5wawDYaMk-WUsct9DKJH-67" value="4DIRx4xxH" style="rounded=0;whiteSpace=wrap;html=1;rotation=-90;" parent="1" vertex="1">
          <mxGeometry x="268" y="800" width="157" height="45" as="geometry" />
        </mxCell>
        <mxCell id="5wawDYaMk-WUsct9DKJH-93" style="edgeStyle=orthogonalEdgeStyle;rounded=0;orthogonalLoop=1;jettySize=auto;html=1;entryX=0;entryY=0.5;entryDx=0;entryDy=0;" parent="1" source="5wawDYaMk-WUsct9DKJH-68" target="5wawDYaMk-WUsct9DKJH-92" edge="1">
          <mxGeometry relative="1" as="geometry">
            <Array as="points">
              <mxPoint x="730" y="850" />
              <mxPoint x="730" y="970" />
            </Array>
          </mxGeometry>
        </mxCell>
        <mxCell id="5wawDYaMk-WUsct9DKJH-95" style="edgeStyle=orthogonalEdgeStyle;rounded=0;orthogonalLoop=1;jettySize=auto;html=1;exitX=0;exitY=0.5;exitDx=0;exitDy=0;" parent="1" source="5wawDYaMk-WUsct9DKJH-94" target="5wawDYaMk-WUsct9DKJH-68" edge="1">
          <mxGeometry relative="1" as="geometry">
            <Array as="points">
              <mxPoint x="750" y="890" />
              <mxPoint x="750" y="830" />
            </Array>
          </mxGeometry>
        </mxCell>
        <mxCell id="5wawDYaMk-WUsct9DKJH-107" style="edgeStyle=orthogonalEdgeStyle;rounded=0;orthogonalLoop=1;jettySize=auto;html=1;startArrow=classic;startFill=1;" parent="1" source="5wawDYaMk-WUsct9DKJH-68" target="5wawDYaMk-WUsct9DKJH-106" edge="1">
          <mxGeometry relative="1" as="geometry">
            <Array as="points">
              <mxPoint x="770" y="810" />
              <mxPoint x="770" y="810" />
            </Array>
          </mxGeometry>
        </mxCell>
        <mxCell id="5wawDYaMk-WUsct9DKJH-114" style="edgeStyle=orthogonalEdgeStyle;rounded=0;orthogonalLoop=1;jettySize=auto;html=1;entryX=0;entryY=0.5;entryDx=0;entryDy=0;startArrow=classic;startFill=1;" parent="1" source="5wawDYaMk-WUsct9DKJH-68" target="5wawDYaMk-WUsct9DKJH-113" edge="1">
          <mxGeometry relative="1" as="geometry">
            <Array as="points">
              <mxPoint x="730" y="790" />
              <mxPoint x="730" y="730" />
            </Array>
          </mxGeometry>
        </mxCell>
        <mxCell id="tlA8jl-dxx9mtqlVM2M6-10" style="edgeStyle=orthogonalEdgeStyle;rounded=0;orthogonalLoop=1;jettySize=auto;html=1;entryX=0;entryY=0.5;entryDx=0;entryDy=0;startArrow=classic;startFill=1;" edge="1" parent="1" source="5wawDYaMk-WUsct9DKJH-68" target="tlA8jl-dxx9mtqlVM2M6-9">
          <mxGeometry relative="1" as="geometry">
            <Array as="points">
              <mxPoint x="710" y="770" />
              <mxPoint x="710" y="650" />
            </Array>
          </mxGeometry>
        </mxCell>
        <mxCell id="tlA8jl-dxx9mtqlVM2M6-14" style="edgeStyle=orthogonalEdgeStyle;rounded=0;orthogonalLoop=1;jettySize=auto;html=1;exitX=0;exitY=0.5;exitDx=0;exitDy=0;" edge="1" parent="1" source="tlA8jl-dxx9mtqlVM2M6-13" target="5wawDYaMk-WUsct9DKJH-68">
          <mxGeometry relative="1" as="geometry">
            <Array as="points">
              <mxPoint x="710" y="1050" />
              <mxPoint x="710" y="870" />
            </Array>
          </mxGeometry>
        </mxCell>
        <mxCell id="tlA8jl-dxx9mtqlVM2M6-16" value="PWM" style="edgeStyle=orthogonalEdgeStyle;rounded=0;orthogonalLoop=1;jettySize=auto;html=1;entryX=0.5;entryY=0;entryDx=0;entryDy=0;" edge="1" parent="1" source="5wawDYaMk-WUsct9DKJH-68" target="5wawDYaMk-WUsct9DKJH-77">
          <mxGeometry relative="1" as="geometry">
            <Array as="points">
              <mxPoint x="540" y="950" />
              <mxPoint x="460" y="950" />
            </Array>
          </mxGeometry>
        </mxCell>
        <mxCell id="5wawDYaMk-WUsct9DKJH-68" value="ESP32" style="whiteSpace=wrap;html=1;aspect=fixed;" parent="1" vertex="1">
          <mxGeometry x="510" y="762.5" width="120" height="120" as="geometry" />
        </mxCell>
        <mxCell id="5wawDYaMk-WUsct9DKJH-69" value="Zero_crossing" style="endArrow=classic;html=1;rounded=0;entryX=0.131;entryY=0;entryDx=0;entryDy=0;entryPerimeter=0;exitX=1.003;exitY=0.977;exitDx=0;exitDy=0;exitPerimeter=0;" parent="1" edge="1">
          <mxGeometry width="50" height="50" relative="1" as="geometry">
            <mxPoint x="166.99999999999994" y="837" as="sourcePoint" />
            <mxPoint x="323.64" y="837.693" as="targetPoint" />
            <Array as="points" />
          </mxGeometry>
        </mxCell>
        <mxCell id="5wawDYaMk-WUsct9DKJH-70" value="RX" style="endArrow=classic;html=1;rounded=0;entryX=0.131;entryY=0;entryDx=0;entryDy=0;entryPerimeter=0;exitX=1.003;exitY=0.977;exitDx=0;exitDy=0;exitPerimeter=0;" parent="1" edge="1">
          <mxGeometry width="50" height="50" relative="1" as="geometry">
            <mxPoint x="323.64" y="777.693" as="sourcePoint" />
            <mxPoint x="166.99999999999994" y="776.9999999999999" as="targetPoint" />
            <Array as="points" />
          </mxGeometry>
        </mxCell>
        <mxCell id="5wawDYaMk-WUsct9DKJH-71" value="TX" style="endArrow=classic;html=1;rounded=0;entryX=0.131;entryY=0;entryDx=0;entryDy=0;entryPerimeter=0;exitX=1.003;exitY=0.977;exitDx=0;exitDy=0;exitPerimeter=0;" parent="1" edge="1">
          <mxGeometry width="50" height="50" relative="1" as="geometry">
            <mxPoint x="166.99999999999994" y="806.9999999999999" as="sourcePoint" />
            <mxPoint x="323.64" y="807.693" as="targetPoint" />
            <Array as="points">
              <mxPoint x="239.64" y="807.26" />
            </Array>
          </mxGeometry>
        </mxCell>
        <mxCell id="5wawDYaMk-WUsct9DKJH-72" value="Rele_colado" style="endArrow=classic;html=1;rounded=0;exitX=0.21;exitY=1.005;exitDx=0;exitDy=0;exitPerimeter=0;entryX=0.21;entryY=1.005;entryDx=0;entryDy=0;entryPerimeter=0;" parent="1" source="5wawDYaMk-WUsct9DKJH-67" edge="1">
          <mxGeometry width="50" height="50" relative="1" as="geometry">
            <mxPoint x="370" y="868" as="sourcePoint" />
            <mxPoint x="510" y="868" as="targetPoint" />
          </mxGeometry>
        </mxCell>
        <mxCell id="5wawDYaMk-WUsct9DKJH-73" value="Zero_crossing" style="endArrow=classic;html=1;rounded=0;exitX=0.004;exitY=0.23;exitDx=0;exitDy=0;exitPerimeter=0;entryX=0.21;entryY=1.005;entryDx=0;entryDy=0;entryPerimeter=0;" parent="1" edge="1">
          <mxGeometry width="50" height="50" relative="1" as="geometry">
            <mxPoint x="369" y="839" as="sourcePoint" />
            <mxPoint x="510" y="839" as="targetPoint" />
          </mxGeometry>
        </mxCell>
        <mxCell id="5wawDYaMk-WUsct9DKJH-74" value="RX" style="endArrow=classic;html=1;rounded=0;exitX=0.004;exitY=0.23;exitDx=0;exitDy=0;exitPerimeter=0;entryX=0.21;entryY=1.005;entryDx=0;entryDy=0;entryPerimeter=0;" parent="1" edge="1">
          <mxGeometry width="50" height="50" relative="1" as="geometry">
            <mxPoint x="369" y="809" as="sourcePoint" />
            <mxPoint x="510" y="809" as="targetPoint" />
          </mxGeometry>
        </mxCell>
        <mxCell id="5wawDYaMk-WUsct9DKJH-75" value="TX" style="endArrow=classic;html=1;rounded=0;exitX=0.004;exitY=0.23;exitDx=0;exitDy=0;exitPerimeter=0;entryX=0.21;entryY=1.005;entryDx=0;entryDy=0;entryPerimeter=0;" parent="1" edge="1">
          <mxGeometry width="50" height="50" relative="1" as="geometry">
            <mxPoint x="510" y="779" as="sourcePoint" />
            <mxPoint x="369" y="779" as="targetPoint" />
          </mxGeometry>
        </mxCell>
        <mxCell id="5wawDYaMk-WUsct9DKJH-76" value="&lt;font style=&quot;font-size: 11px;&quot;&gt;Máquina de Estados&lt;/font&gt;" style="text;html=1;align=center;verticalAlign=middle;whiteSpace=wrap;rounded=0;" parent="1" vertex="1">
          <mxGeometry x="505" y="732.5" width="125" height="30" as="geometry" />
        </mxCell>
        <mxCell id="5wawDYaMk-WUsct9DKJH-77" value="CP" style="rounded=0;whiteSpace=wrap;html=1;" parent="1" vertex="1">
          <mxGeometry x="375" y="1020" width="170" height="60" as="geometry" />
        </mxCell>
        <mxCell id="5wawDYaMk-WUsct9DKJH-79" value="DETECÇÃO DE RELÉ COLADO" style="rounded=0;whiteSpace=wrap;html=1;" parent="1" vertex="1">
          <mxGeometry x="-140" y="750" width="120" height="60" as="geometry" />
        </mxCell>
        <mxCell id="5wawDYaMk-WUsct9DKJH-80" value="DETECÇÃO DE ZEROCROSSING" style="rounded=0;whiteSpace=wrap;html=1;" parent="1" vertex="1">
          <mxGeometry x="-140" y="830" width="120" height="60" as="geometry" />
        </mxCell>
        <mxCell id="5wawDYaMk-WUsct9DKJH-90" value="ACIONAMENTO DOS RELES" style="rounded=0;whiteSpace=wrap;html=1;" parent="1" vertex="1">
          <mxGeometry x="-100" y="450" width="120" height="60" as="geometry" />
        </mxCell>
        <mxCell id="5wawDYaMk-WUsct9DKJH-92" value="ACIONAMENTO DOS RELES" style="rounded=0;whiteSpace=wrap;html=1;" parent="1" vertex="1">
          <mxGeometry x="780" y="940" width="120" height="60" as="geometry" />
        </mxCell>
        <mxCell id="5wawDYaMk-WUsct9DKJH-94" value="RFID" style="rounded=0;whiteSpace=wrap;html=1;" parent="1" vertex="1">
          <mxGeometry x="780" y="860" width="120" height="60" as="geometry" />
        </mxCell>
        <mxCell id="5wawDYaMk-WUsct9DKJH-96" value="RFID" style="rounded=0;whiteSpace=wrap;html=1;" parent="1" vertex="1">
          <mxGeometry x="630" y="170" width="120" height="60" as="geometry" />
        </mxCell>
        <mxCell id="5wawDYaMk-WUsct9DKJH-99" value="Wi-fi" style="rounded=0;whiteSpace=wrap;html=1;" parent="1" vertex="1">
          <mxGeometry x="465" y="170" width="120" height="60" as="geometry" />
        </mxCell>
        <mxCell id="5wawDYaMk-WUsct9DKJH-100" value="Ethernet" style="rounded=0;whiteSpace=wrap;html=1;" parent="1" vertex="1">
          <mxGeometry x="730" y="322.5" width="120" height="60" as="geometry" />
        </mxCell>
        <mxCell id="5wawDYaMk-WUsct9DKJH-106" value="Wi-fi" style="rounded=0;whiteSpace=wrap;html=1;" parent="1" vertex="1">
          <mxGeometry x="780" y="780" width="120" height="60" as="geometry" />
        </mxCell>
        <mxCell id="5wawDYaMk-WUsct9DKJH-111" value="&lt;h1 style=&quot;margin-top: 0px;&quot;&gt;SOLUÇÃO 1&lt;/h1&gt;&lt;div&gt;&lt;font color=&quot;#00cc00&quot; style=&quot;font-size: 18px;&quot;&gt;BOM:&lt;/font&gt;&lt;/div&gt;&lt;div&gt;&lt;font color=&quot;#00cc00&quot; style=&quot;font-size: 18px;&quot;&gt;- Diminui o processamento na ESP32&lt;/font&gt;&lt;/div&gt;&lt;div&gt;&lt;font color=&quot;#00cc00&quot; style=&quot;font-size: 18px;&quot;&gt;- Proteção junto da máquina de estados&lt;/font&gt;&lt;/div&gt;&lt;div&gt;&lt;br&gt;&lt;/div&gt;&lt;div&gt;&lt;br&gt;&lt;/div&gt;&lt;div&gt;&lt;font color=&quot;#ff3333&quot; size=&quot;3&quot;&gt;RUIM:&lt;/font&gt;&lt;/div&gt;&lt;div&gt;&lt;font color=&quot;#ff3333&quot; size=&quot;3&quot;&gt;- Maior parte do circuito ligado a rede (maior risco de choque elétrico)&lt;/font&gt;&lt;/div&gt;&lt;div&gt;&lt;font color=&quot;#ff3333&quot; size=&quot;3&quot;&gt;- Precisa de um OPTO para o sinal PWM&lt;/font&gt;&lt;/div&gt;&lt;div&gt;&lt;font color=&quot;#ff3333&quot; size=&quot;3&quot;&gt;- Uma conexão do isolador&amp;nbsp;&lt;/font&gt;&lt;span style=&quot;background-color: initial;&quot;&gt;&lt;font size=&quot;3&quot; color=&quot;#ff3333&quot;&gt;4DIR1421HXUMA1 não será aproveitada&lt;/font&gt;&lt;/span&gt;&lt;/div&gt;&lt;p&gt;&lt;br&gt;&lt;/p&gt;" style="text;html=1;whiteSpace=wrap;overflow=hidden;rounded=0;" parent="1" vertex="1">
          <mxGeometry x="1010" y="320" width="603" height="310" as="geometry" />
        </mxCell>
        <mxCell id="5wawDYaMk-WUsct9DKJH-112" value="&lt;h1 style=&quot;margin-top: 0px;&quot;&gt;SOLUÇÃO 2&lt;/h1&gt;&lt;div&gt;&lt;font color=&quot;#00cc00&quot; style=&quot;font-size: 18px;&quot;&gt;BOM:&lt;/font&gt;&lt;/div&gt;&lt;div&gt;&lt;span style=&quot;font-size: 18px;&quot;&gt;&lt;font color=&quot;#00cc00&quot;&gt;- Separa o processamento dos dados de energia da máquina de estados do carregador&lt;/font&gt;&lt;/span&gt;&lt;/div&gt;&lt;div&gt;&lt;span style=&quot;font-size: 18px;&quot;&gt;&lt;font color=&quot;#00cc00&quot;&gt;- Não precisa do opto para o sinal PWM&lt;/font&gt;&lt;/span&gt;&lt;/div&gt;&lt;div&gt;&lt;span style=&quot;font-size: 18px;&quot;&gt;&lt;font color=&quot;#00cc00&quot;&gt;- Maior parte do circuito será isolado (menor risco de choque elétrico)&lt;/font&gt;&lt;/span&gt;&lt;/div&gt;&lt;div&gt;&lt;br&gt;&lt;/div&gt;&lt;div&gt;&lt;br&gt;&lt;/div&gt;&lt;div&gt;&lt;font color=&quot;#ff3333&quot; size=&quot;3&quot;&gt;RUIM:&lt;/font&gt;&lt;/div&gt;&lt;div&gt;&lt;font color=&quot;#ff3333&quot; size=&quot;3&quot;&gt;- ESP32 mais sobrecarregada&lt;/font&gt;&lt;/div&gt;&lt;div&gt;&lt;font color=&quot;#ff3333&quot; size=&quot;3&quot;&gt;- Pode ser necessário ADC externo para ESP32&lt;/font&gt;&lt;/div&gt;&lt;div&gt;&lt;font color=&quot;#ff3333&quot; size=&quot;3&quot;&gt;- Proteções separadas da máquina de estados&lt;/font&gt;&lt;/div&gt;&lt;p&gt;&lt;br&gt;&lt;/p&gt;" style="text;html=1;whiteSpace=wrap;overflow=hidden;rounded=0;" parent="1" vertex="1">
          <mxGeometry x="1020" y="720" width="603" height="310" as="geometry" />
        </mxCell>
        <mxCell id="5wawDYaMk-WUsct9DKJH-113" value="Ethernet" style="rounded=0;whiteSpace=wrap;html=1;" parent="1" vertex="1">
          <mxGeometry x="780" y="700" width="120" height="60" as="geometry" />
        </mxCell>
        <mxCell id="5wawDYaMk-WUsct9DKJH-115" value="MEDIDA DE ENERGIA" style="rounded=0;whiteSpace=wrap;html=1;" parent="1" vertex="1">
          <mxGeometry x="-20" y="160" width="120" height="60" as="geometry" />
        </mxCell>
        <mxCell id="tlA8jl-dxx9mtqlVM2M6-3" style="edgeStyle=orthogonalEdgeStyle;rounded=0;orthogonalLoop=1;jettySize=auto;html=1;" edge="1" parent="1" source="tlA8jl-dxx9mtqlVM2M6-2" target="5wawDYaMk-WUsct9DKJH-117">
          <mxGeometry relative="1" as="geometry">
            <Array as="points">
              <mxPoint x="10" y="960" />
            </Array>
          </mxGeometry>
        </mxCell>
        <mxCell id="tlA8jl-dxx9mtqlVM2M6-4" style="edgeStyle=orthogonalEdgeStyle;rounded=0;orthogonalLoop=1;jettySize=auto;html=1;exitX=0.5;exitY=0;exitDx=0;exitDy=0;" edge="1" parent="1" source="tlA8jl-dxx9mtqlVM2M6-1" target="5wawDYaMk-WUsct9DKJH-117">
          <mxGeometry relative="1" as="geometry">
            <Array as="points">
              <mxPoint x="208" y="960" />
            </Array>
          </mxGeometry>
        </mxCell>
        <mxCell id="5wawDYaMk-WUsct9DKJH-117" value="MEDIDA DE ENERGIA" style="rounded=0;whiteSpace=wrap;html=1;" parent="1" vertex="1">
          <mxGeometry x="47" y="930" width="120" height="60" as="geometry" />
        </mxCell>
        <mxCell id="tlA8jl-dxx9mtqlVM2M6-1" value="SENSOR DE TENSÃO" style="rounded=0;whiteSpace=wrap;html=1;" vertex="1" parent="1">
          <mxGeometry x="148" y="1020" width="120" height="60" as="geometry" />
        </mxCell>
        <mxCell id="tlA8jl-dxx9mtqlVM2M6-2" value="SENSOR DE CORRENTE" style="rounded=0;whiteSpace=wrap;html=1;" vertex="1" parent="1">
          <mxGeometry x="-47" y="1020" width="120" height="60" as="geometry" />
        </mxCell>
        <mxCell id="tlA8jl-dxx9mtqlVM2M6-5" value="ADC EXTERNO" style="rounded=0;whiteSpace=wrap;html=1;" vertex="1" parent="1">
          <mxGeometry x="570" y="1020" width="80" height="60" as="geometry" />
        </mxCell>
        <mxCell id="tlA8jl-dxx9mtqlVM2M6-9" value="IHM" style="rounded=0;whiteSpace=wrap;html=1;" vertex="1" parent="1">
          <mxGeometry x="780" y="620" width="120" height="60" as="geometry" />
        </mxCell>
        <mxCell id="tlA8jl-dxx9mtqlVM2M6-12" style="edgeStyle=orthogonalEdgeStyle;rounded=0;orthogonalLoop=1;jettySize=auto;html=1;" edge="1" parent="1" source="tlA8jl-dxx9mtqlVM2M6-11">
          <mxGeometry relative="1" as="geometry">
            <mxPoint x="80" y="760" as="targetPoint" />
          </mxGeometry>
        </mxCell>
        <mxCell id="tlA8jl-dxx9mtqlVM2M6-11" value="DETECÇÃO DE ORDEM DE FASES" style="rounded=0;whiteSpace=wrap;html=1;" vertex="1" parent="1">
          <mxGeometry x="-140" y="670" width="120" height="60" as="geometry" />
        </mxCell>
        <mxCell id="tlA8jl-dxx9mtqlVM2M6-13" value="PROTEÇÃO GFCI AC/DC" style="rounded=0;whiteSpace=wrap;html=1;" vertex="1" parent="1">
          <mxGeometry x="780" y="1020" width="120" height="60" as="geometry" />
        </mxCell>
        <mxCell id="tlA8jl-dxx9mtqlVM2M6-17" style="edgeStyle=orthogonalEdgeStyle;rounded=0;orthogonalLoop=1;jettySize=auto;html=1;entryX=0;entryY=0.5;entryDx=0;entryDy=0;" edge="1" parent="1" source="5wawDYaMk-WUsct9DKJH-77" target="tlA8jl-dxx9mtqlVM2M6-5">
          <mxGeometry relative="1" as="geometry" />
        </mxCell>
        <mxCell id="tlA8jl-dxx9mtqlVM2M6-18" value="PWM_READ" style="edgeStyle=orthogonalEdgeStyle;rounded=0;orthogonalLoop=1;jettySize=auto;html=1;entryX=0.833;entryY=1.005;entryDx=0;entryDy=0;entryPerimeter=0;" edge="1" parent="1" source="tlA8jl-dxx9mtqlVM2M6-5" target="5wawDYaMk-WUsct9DKJH-68">
          <mxGeometry x="-0.0052" relative="1" as="geometry">
            <mxPoint x="607" y="890" as="targetPoint" />
            <Array as="points" />
            <mxPoint as="offset" />
          </mxGeometry>
        </mxCell>
        <mxCell id="tlA8jl-dxx9mtqlVM2M6-23" value="STM32F373" style="whiteSpace=wrap;html=1;aspect=fixed;" vertex="1" parent="1">
          <mxGeometry x="47" y="1296.5" width="120" height="120" as="geometry" />
        </mxCell>
        <mxCell id="tlA8jl-dxx9mtqlVM2M6-31" value="PWM" style="edgeStyle=orthogonalEdgeStyle;rounded=0;orthogonalLoop=1;jettySize=auto;html=1;entryX=0.25;entryY=0;entryDx=0;entryDy=0;" edge="1" parent="1" source="tlA8jl-dxx9mtqlVM2M6-32" target="tlA8jl-dxx9mtqlVM2M6-41">
          <mxGeometry relative="1" as="geometry">
            <Array as="points">
              <mxPoint x="540" y="1450" />
              <mxPoint x="540" y="1450" />
            </Array>
          </mxGeometry>
        </mxCell>
        <mxCell id="tlA8jl-dxx9mtqlVM2M6-64" style="edgeStyle=orthogonalEdgeStyle;rounded=0;orthogonalLoop=1;jettySize=auto;html=1;" edge="1" parent="1" source="tlA8jl-dxx9mtqlVM2M6-32" target="tlA8jl-dxx9mtqlVM2M6-54">
          <mxGeometry relative="1" as="geometry">
            <Array as="points">
              <mxPoint x="670" y="1320" />
              <mxPoint x="670" y="1320" />
            </Array>
          </mxGeometry>
        </mxCell>
        <mxCell id="tlA8jl-dxx9mtqlVM2M6-65" style="edgeStyle=orthogonalEdgeStyle;rounded=0;orthogonalLoop=1;jettySize=auto;html=1;entryX=0;entryY=0.5;entryDx=0;entryDy=0;" edge="1" parent="1" source="tlA8jl-dxx9mtqlVM2M6-32" target="tlA8jl-dxx9mtqlVM2M6-44">
          <mxGeometry relative="1" as="geometry">
            <Array as="points">
              <mxPoint x="640" y="1394" />
              <mxPoint x="640" y="1394" />
            </Array>
          </mxGeometry>
        </mxCell>
        <mxCell id="tlA8jl-dxx9mtqlVM2M6-32" value="STM32F103" style="whiteSpace=wrap;html=1;aspect=fixed;" vertex="1" parent="1">
          <mxGeometry x="510" y="1296.5" width="120" height="120" as="geometry" />
        </mxCell>
        <mxCell id="tlA8jl-dxx9mtqlVM2M6-34" value="RX" style="endArrow=classic;html=1;rounded=0;entryX=1.003;entryY=0.196;entryDx=0;entryDy=0;entryPerimeter=0;exitX=0;exitY=0.5;exitDx=0;exitDy=0;" edge="1" parent="1" source="tlA8jl-dxx9mtqlVM2M6-61" target="tlA8jl-dxx9mtqlVM2M6-23">
          <mxGeometry width="50" height="50" relative="1" as="geometry">
            <mxPoint x="323.64" y="1311.693" as="sourcePoint" />
            <mxPoint x="166.99999999999994" y="1311" as="targetPoint" />
            <Array as="points">
              <mxPoint x="250" y="1320" />
            </Array>
          </mxGeometry>
        </mxCell>
        <mxCell id="tlA8jl-dxx9mtqlVM2M6-35" value="TX" style="endArrow=classic;html=1;rounded=0;entryX=-0.007;entryY=0.506;entryDx=0;entryDy=0;entryPerimeter=0;exitX=1.003;exitY=0.977;exitDx=0;exitDy=0;exitPerimeter=0;" edge="1" parent="1" target="tlA8jl-dxx9mtqlVM2M6-63">
          <mxGeometry width="50" height="50" relative="1" as="geometry">
            <mxPoint x="166.99999999999994" y="1393.31" as="sourcePoint" />
            <mxPoint x="323.64" y="1394.003" as="targetPoint" />
            <Array as="points">
              <mxPoint x="239.64" y="1393.57" />
            </Array>
          </mxGeometry>
        </mxCell>
        <mxCell id="tlA8jl-dxx9mtqlVM2M6-38" value="RX" style="endArrow=classic;html=1;rounded=0;exitX=1;exitY=0.5;exitDx=0;exitDy=0;entryX=0.21;entryY=1.005;entryDx=0;entryDy=0;entryPerimeter=0;" edge="1" parent="1" source="tlA8jl-dxx9mtqlVM2M6-63">
          <mxGeometry width="50" height="50" relative="1" as="geometry">
            <mxPoint x="369" y="1394" as="sourcePoint" />
            <mxPoint x="510" y="1394" as="targetPoint" />
          </mxGeometry>
        </mxCell>
        <mxCell id="tlA8jl-dxx9mtqlVM2M6-39" value="TX" style="endArrow=classic;html=1;rounded=0;exitX=0.003;exitY=0.194;exitDx=0;exitDy=0;exitPerimeter=0;entryX=1;entryY=0.5;entryDx=0;entryDy=0;" edge="1" parent="1" source="tlA8jl-dxx9mtqlVM2M6-32" target="tlA8jl-dxx9mtqlVM2M6-61">
          <mxGeometry width="50" height="50" relative="1" as="geometry">
            <mxPoint x="510" y="1313" as="sourcePoint" />
            <mxPoint x="370" y="1320" as="targetPoint" />
            <Array as="points">
              <mxPoint x="440" y="1320" />
            </Array>
          </mxGeometry>
        </mxCell>
        <mxCell id="tlA8jl-dxx9mtqlVM2M6-40" value="&lt;font style=&quot;font-size: 11px;&quot;&gt;Máquina de Estados&lt;/font&gt;" style="text;html=1;align=center;verticalAlign=middle;whiteSpace=wrap;rounded=0;" vertex="1" parent="1">
          <mxGeometry x="505" y="1266.5" width="125" height="30" as="geometry" />
        </mxCell>
        <mxCell id="tlA8jl-dxx9mtqlVM2M6-41" value="CP" style="rounded=0;whiteSpace=wrap;html=1;" vertex="1" parent="1">
          <mxGeometry x="510" y="1480" width="120" height="60" as="geometry" />
        </mxCell>
        <mxCell id="tlA8jl-dxx9mtqlVM2M6-44" value="ACIONAMENTO DOS RELES" style="rounded=0;whiteSpace=wrap;html=1;" vertex="1" parent="1">
          <mxGeometry x="680" y="1364" width="120" height="60" as="geometry" />
        </mxCell>
        <mxCell id="tlA8jl-dxx9mtqlVM2M6-48" style="edgeStyle=orthogonalEdgeStyle;rounded=0;orthogonalLoop=1;jettySize=auto;html=1;" edge="1" parent="1" source="tlA8jl-dxx9mtqlVM2M6-52" target="tlA8jl-dxx9mtqlVM2M6-23">
          <mxGeometry relative="1" as="geometry">
            <Array as="points">
              <mxPoint x="80" y="1490" />
            </Array>
            <mxPoint x="47" y="1465" as="targetPoint" />
          </mxGeometry>
        </mxCell>
        <mxCell id="tlA8jl-dxx9mtqlVM2M6-49" style="edgeStyle=orthogonalEdgeStyle;rounded=0;orthogonalLoop=1;jettySize=auto;html=1;" edge="1" parent="1" source="tlA8jl-dxx9mtqlVM2M6-51" target="tlA8jl-dxx9mtqlVM2M6-23">
          <mxGeometry relative="1" as="geometry">
            <Array as="points">
              <mxPoint x="140" y="1490" />
            </Array>
            <mxPoint x="140" y="1430" as="targetPoint" />
          </mxGeometry>
        </mxCell>
        <mxCell id="tlA8jl-dxx9mtqlVM2M6-51" value="SENSOR DE TENSÃO" style="rounded=0;whiteSpace=wrap;html=1;" vertex="1" parent="1">
          <mxGeometry x="167" y="1460" width="120" height="60" as="geometry" />
        </mxCell>
        <mxCell id="tlA8jl-dxx9mtqlVM2M6-52" value="SENSOR DE CORRENTE" style="rounded=0;whiteSpace=wrap;html=1;" vertex="1" parent="1">
          <mxGeometry x="-60" y="1460" width="120" height="60" as="geometry" />
        </mxCell>
        <mxCell id="tlA8jl-dxx9mtqlVM2M6-54" value="IHM (LEDs RGB)" style="rounded=0;whiteSpace=wrap;html=1;" vertex="1" parent="1">
          <mxGeometry x="680" y="1290" width="120" height="60" as="geometry" />
        </mxCell>
        <mxCell id="tlA8jl-dxx9mtqlVM2M6-59" value="PWM_READ" style="edgeStyle=orthogonalEdgeStyle;rounded=0;orthogonalLoop=1;jettySize=auto;html=1;entryX=0.833;entryY=1.005;entryDx=0;entryDy=0;entryPerimeter=0;" edge="1" parent="1" target="tlA8jl-dxx9mtqlVM2M6-32">
          <mxGeometry x="-0.0052" relative="1" as="geometry">
            <mxPoint x="607" y="1424" as="targetPoint" />
            <Array as="points">
              <mxPoint x="610" y="1480" />
            </Array>
            <mxPoint as="offset" />
            <mxPoint x="610" y="1480" as="sourcePoint" />
          </mxGeometry>
        </mxCell>
        <mxCell id="tlA8jl-dxx9mtqlVM2M6-61" value="OPTO" style="rounded=0;whiteSpace=wrap;html=1;" vertex="1" parent="1">
          <mxGeometry x="326.5" y="1300" width="40" height="40" as="geometry" />
        </mxCell>
        <mxCell id="tlA8jl-dxx9mtqlVM2M6-63" value="OPTO" style="rounded=0;whiteSpace=wrap;html=1;" vertex="1" parent="1">
          <mxGeometry x="326.5" y="1374" width="40" height="40" as="geometry" />
        </mxCell>
        <mxCell id="tlA8jl-dxx9mtqlVM2M6-67" value="Isolamento" style="text;html=1;align=center;verticalAlign=middle;whiteSpace=wrap;rounded=0;rotation=-90;" vertex="1" parent="1">
          <mxGeometry x="306.5" y="1210" width="60" height="40" as="geometry" />
        </mxCell>
        <mxCell id="tlA8jl-dxx9mtqlVM2M6-68" value="Referenciado ao Neutro&amp;nbsp;" style="text;html=1;align=center;verticalAlign=middle;whiteSpace=wrap;rounded=0;" vertex="1" parent="1">
          <mxGeometry x="-20" y="1200" width="167" height="30" as="geometry" />
        </mxCell>
        <mxCell id="tlA8jl-dxx9mtqlVM2M6-69" value="Referência isolada" style="text;html=1;align=center;verticalAlign=middle;whiteSpace=wrap;rounded=0;" vertex="1" parent="1">
          <mxGeometry x="600" y="1200" width="150" height="30" as="geometry" />
        </mxCell>
        <mxCell id="tlA8jl-dxx9mtqlVM2M6-71" value="Comunicação UART isolada" style="text;html=1;align=center;verticalAlign=middle;whiteSpace=wrap;rounded=0;" vertex="1" parent="1">
          <mxGeometry x="160" y="1340" width="193" height="30" as="geometry" />
        </mxCell>
      </root>
    </mxGraphModel>
  </diagram>
</mxfile>
